<?xml version="1.0" encoding="UTF-8"?>
<svg width="18px" height="18px" viewBox="0 0 18 18" version="1.1" xmlns="http://www.w3.org/2000/svg" xmlns:xlink="http://www.w3.org/1999/xlink">
    <!-- Generator: Sketch 55.2 (78181) - https://sketchapp.com -->
    <title>Toggle/ic_check_box_outline_blank</title>
    <desc>Created with Sketch.</desc>
    <g id="系统监控" stroke="none" stroke-width="1" fill="none" fill-rule="evenodd">
        <g id="报警控制面板" transform="translate(-128.000000, -188.000000)">
            <g id="编组" transform="translate(100.000000, 150.000000)">
                <g id="Toggle/ic_check_box" transform="translate(25.000000, 35.000000)">
                    <g id="ic_check_box">
                        <polygon id="Bounds" points="0 0 24 0 24 24 0 24"></polygon>
                        <path d="M19,3 L5,3 C3.89,3 3,3.9 3,5 L3,19 C3,20.1 3.89,21 5,21 L19,21 C20.11,21 21,20.1 21,19 L21,5 C21,3.9 20.11,3 19,3 L19,3 Z M10,17 L5,12 L6.41,10.59 L10,14.17 L17.59,6.58 L19,8 L10,17 L10,17 Z" id="Icon" fill="#000000"></path>
                    </g>
                </g>
            </g>
        </g>
    </g>
</svg>