<?xml version="1.0" encoding="UTF-8"?>
<svg width="13px" height="13px" viewBox="0 0 13 13" version="1.1" xmlns="http://www.w3.org/2000/svg" xmlns:xlink="http://www.w3.org/1999/xlink">
    <!-- Generator: Sketch 55.2 (78181) - https://sketchapp.com -->
    <title>Maps/ic_zoom_out_map</title>
    <desc>Created with Sketch.</desc>
    <g id="系统监控" stroke="none" stroke-width="1" fill="none" fill-rule="evenodd" opacity="0.400000006">
        <g id="主页" transform="translate(-716.000000, -170.000000)">
            <g id="编组-5" transform="translate(100.000000, 150.000000)">
                <g id="Maps/ic_zoom_out_map" transform="translate(615.000000, 19.000000)">
                    <g id="ic_zoom_out_map">
                        <polygon id="Bounds" points="0 0 15.4010695 0 15.4010695 15.4010695 0 15.4010695"></polygon>
                        <path d="M2.33667264,9.14848921 L3.94097701,10.7527936 L1.92513369,12.7546864 L2.91561726,13.74517 L4.9175101,11.7293267 L6.52181447,13.333631 L6.52181447,9.14848921 L2.33667264,9.14848921 Z M9.14848921,13.333631 L10.7527936,11.7293267 L12.7546864,13.74517 L13.74517,12.7546864 L11.7293267,10.7527936 L13.333631,9.14848921 L9.14848921,9.14848921 L9.14848921,13.333631 Z M13.333631,6.52181447 L11.7293267,4.9175101 L13.74517,2.91561726 L12.7546864,1.92513369 L10.7527936,3.94097701 L9.14848921,2.33667264 L9.14848921,6.52181447 L13.333631,6.52181447 Z M6.52181447,2.33667264 L4.9175101,3.94097701 L2.91561726,1.92513369 L1.92513369,2.91561726 L3.94097701,4.9175101 L2.33667264,6.52181447 L6.52181447,6.52181447 L6.52181447,2.33667264 Z" id="Icon" fill="#000000"></path>
                    </g>
                </g>
            </g>
        </g>
    </g>
</svg>