<?xml version="1.0" encoding="UTF-8"?>
<svg width="16px" height="13px" viewBox="0 0 16 13" version="1.1" xmlns="http://www.w3.org/2000/svg" xmlns:xlink="http://www.w3.org/1999/xlink">
    <!-- Generator: Sketch 55.2 (78181) - https://sketchapp.com -->
    <title>Action/ic_aspect_ratio</title>
    <desc>Created with Sketch.</desc>
    <g id="系统监控" stroke="none" stroke-width="1" fill="none" fill-rule="evenodd" opacity="0.400000006">
        <g id="主页" transform="translate(-651.000000, -170.000000)">
            <g id="编组-5" transform="translate(100.000000, 150.000000)">
                <g id="Action/ic_aspect_ratio" transform="translate(551.000000, 18.000000)">
                    <g id="ic_aspect_ratio">
                        <polygon id="Bounds" points="0 0 16.4278075 0 16.4278075 16.4278075 0 16.4278075"></polygon>
                        <path d="M13.0053476,8.21390374 L11.6363636,8.21390374 L11.6363636,10.2673797 L9.5828877,10.2673797 L9.5828877,11.6363636 L13.0053476,11.6363636 L13.0053476,8.21390374 L13.0053476,8.21390374 Z M4.79144385,6.16042781 L6.84491979,6.16042781 L6.84491979,4.79144385 L3.42245989,4.79144385 L3.42245989,8.21390374 L4.79144385,8.21390374 L4.79144385,6.16042781 L4.79144385,6.16042781 Z M14.3743316,2.05347594 L2.05347594,2.05347594 C1.30053476,2.05347594 0.684491979,2.66951872 0.684491979,3.42245989 L0.684491979,13.0053476 C0.684491979,13.7582888 1.30053476,14.3743316 2.05347594,14.3743316 L14.3743316,14.3743316 C15.1272727,14.3743316 15.7433155,13.7582888 15.7433155,13.0053476 L15.7433155,3.42245989 C15.7433155,2.66951872 15.1272727,2.05347594 14.3743316,2.05347594 L14.3743316,2.05347594 Z M14.3743316,13.0121925 L2.05347594,13.0121925 L2.05347594,3.41561497 L14.3743316,3.41561497 L14.3743316,13.0121925 L14.3743316,13.0121925 Z" id="Icon" fill="#000000"></path>
                    </g>
                </g>
            </g>
        </g>
    </g>
</svg>