<?xml version="1.0" encoding="UTF-8"?>
<svg width="16px" height="12px" viewBox="0 0 16 12" version="1.1" xmlns="http://www.w3.org/2000/svg" xmlns:xlink="http://www.w3.org/1999/xlink">
    <!-- Generator: Sketch 55.2 (78181) - https://sketchapp.com -->
    <title>编组 9</title>
    <desc>Created with Sketch.</desc>
    <g id="系统监控" stroke="none" stroke-width="1" fill="none" fill-rule="evenodd" opacity="0.400000006">
        <g id="主页" transform="translate(-617.000000, -170.000000)" stroke="#000000">
            <g id="编组-5" transform="translate(100.000000, 150.000000)">
                <g id="编组-9" transform="translate(517.000000, 18.000000)">
                    <g transform="translate(0.500000, 2.000000)">
                        <rect id="矩形" stroke-width="1.45454545" x="0.727272727" y="0.727272727" width="13.5454545" height="10.5454545" rx="1.45454545"></rect>
                        <path d="M2.82082012,7.25910931 C3.0774775,7.45209273 3.3828067,7.54993251 3.73681687,7.55263158 C4.15572892,7.54723344 4.36813184,7.41025775 4.37403201,7.1417004 C4.37698209,6.9217263 4.23685517,6.78947391 3.95364702,6.74493927 C3.82384329,6.72874486 3.68150384,6.71052642 3.52662438,6.6902834 C3.24931641,6.64844783 3.03838851,6.5546566 2.89383435,6.40890688 C2.74485507,6.25910856 2.67036655,6.07692415 2.67036655,5.86234818 C2.67036655,5.60458711 2.76403033,5.39676192 2.95136072,5.2388664 C3.13279094,5.0823204 3.39018198,5.00269907 3.72354156,5 C4.12475309,5.00809721 4.47359539,5.10998553 4.77007891,5.30566802 L4.49793495,5.67408907 C4.256028,5.52833935 3.98978684,5.45276656 3.69920348,5.44736842 C3.54874916,5.44736842 3.42337243,5.48178103 3.32306955,5.55060729 C3.21834154,5.62213261 3.1645033,5.72874423 3.16155321,5.87044534 C3.16155321,5.95546601 3.19769121,6.03238832 3.26996829,6.10121457 C3.34224536,6.17139036 3.45803446,6.21997287 3.61733904,6.24696356 C3.70584158,6.26045891 3.82679324,6.27597832 3.98019765,6.29352227 C4.28258135,6.33130923 4.50604692,6.43049852 4.65060108,6.59109312 C4.79368019,6.74898864 4.86521867,6.93252257 4.86521867,7.1417004 C4.84899321,7.70580579 4.47138802,7.99190279 3.73239177,8 C3.25447803,8 2.84368488,7.86504858 2.5,7.5951417 L2.82082012,7.25910931 Z M6.07622244,5.0242915 L6.56519655,5.0242915 L6.56519655,6.92712551 C6.56814663,7.12820613 6.63157251,7.28137599 6.75547607,7.38663968 C6.87642954,7.4973015 7.03204418,7.55263158 7.22232466,7.55263158 C7.41260513,7.55263158 7.56969479,7.4973015 7.69359835,7.38663968 C7.81455183,7.28137599 7.87650268,7.12820613 7.87945276,6.92712551 L7.87945276,5.0242915 L8.36842688,5.0242915 L8.36842688,6.9757085 C8.36252671,7.28610142 8.25263769,7.53238775 8.03875655,7.7145749 C7.82340035,7.90216018 7.55125911,7.99730093 7.22232466,8 C6.89929037,7.99730093 6.62936166,7.90216018 6.41253042,7.7145749 C6.19127406,7.53238775 6.07917252,7.28610142 6.07622244,6.9757085 L6.07622244,5.0242915 Z M9.74537208,5.0242915 L10.205583,5.0242915 L11.13043,6.94736842 L12.0375765,5.0242915 L12.5,5.0242915 L12.5,7.9757085 L12.0110259,7.9757085 L12.0110259,6.13562753 L11.9999631,6.13562753 L11.3251346,7.55263158 L10.9180249,7.55263158 L10.2431964,6.13562753 L10.2343462,6.13562753 L10.2343462,7.9757085 L9.74537208,7.9757085 L9.74537208,5.0242915 Z" id="SUM" stroke-width="0.5" fill="#000000" fill-rule="nonzero"></path>
                    </g>
                </g>
            </g>
        </g>
    </g>
</svg>