<?xml version="1.0" encoding="UTF-8"?>
<svg width="16px" height="12px" viewBox="0 0 16 12" version="1.1" xmlns="http://www.w3.org/2000/svg" xmlns:xlink="http://www.w3.org/1999/xlink">
    <!-- Generator: Sketch 55.2 (78181) - https://sketchapp.com -->
    <title>编组 8</title>
    <desc>Created with Sketch.</desc>
    <g id="系统监控" stroke="none" stroke-width="1" fill="none" fill-rule="evenodd" opacity="0.400000006">
        <g id="主页" transform="translate(-583.000000, -170.000000)" stroke="#000000">
            <g id="编组-5" transform="translate(100.000000, 150.000000)">
                <g id="编组-8" transform="translate(483.000000, 18.000000)">
                    <g transform="translate(0.500000, 2.000000)">
                        <path d="M3,5.0242915 L3.48480663,5.0242915 L3.48480663,7.55263158 L5.04233019,7.55263158 L5.04233019,7.9757085 L3,7.9757085 L3,5.0242915 Z M7.28501787,6.35020243 L8.42135197,6.35020243 L8.42135197,6.951417 C8.41550208,7.24696504 8.30581842,7.49460089 8.09229769,7.69433198 C7.87731449,7.89271354 7.60676146,7.99460186 7.28063048,8 C7.02908552,7.99460186 6.81922411,7.93792227 6.65103997,7.82995951 C6.4799309,7.72604536 6.35562275,7.6059386 6.2781118,7.46963563 C6.25471227,7.42510099 6.23350676,7.3825913 6.21449464,7.34210526 C6.19694499,7.3002697 6.1823205,7.24763864 6.17062073,7.18421053 C6.14868367,7.0654515 6.13771531,6.8373836 6.13771531,6.5 C6.13771531,6.15721826 6.14868367,5.92780085 6.17062073,5.81174089 C6.19402027,5.69568093 6.22985026,5.6018897 6.2781118,5.53036437 C6.35562275,5.3940614 6.4799309,5.27260512 6.65103997,5.1659919 C6.81922411,5.05802915 7.02908552,5.00269907 7.28063048,5 C7.58921181,5.00269907 7.84075301,5.0870437 8.03526162,5.25303644 C8.22977023,5.4203787 8.35261593,5.62752913 8.4038024,5.87449393 L7.89047774,5.87449393 C7.85099103,5.7557349 7.77933104,5.65452134 7.67549561,5.5708502 C7.56727278,5.49122767 7.43565238,5.45006749 7.28063048,5.44736842 C7.16655777,5.45006749 7.0685737,5.47098496 6.98667533,5.51012146 C6.9033145,5.55060749 6.83604185,5.60121427 6.78485538,5.66194332 C6.72196914,5.72537144 6.68028935,5.80701704 6.65981475,5.90688259 C6.63641522,6.01214628 6.62471563,6.2098501 6.62471563,6.5 C6.62471563,6.7901499 6.63641522,6.98650421 6.65981475,7.08906883 C6.68028935,7.19163344 6.72196914,7.27462856 6.78485538,7.33805668 C6.83604185,7.39878573 6.9033145,7.448043 6.98667533,7.48582996 C7.0685737,7.5303646 7.16655777,7.55263158 7.28063048,7.55263158 C7.46928921,7.55263158 7.62504001,7.49325296 7.74788755,7.37449393 C7.8707351,7.26113304 7.93362039,7.11201172 7.93654534,6.92712551 L7.93654534,6.77327935 L7.28501787,6.77327935 L7.28501787,6.35020243 Z M9.7361066,5.0242915 L10.8548911,5.0242915 C11.2877825,5.02699057 11.6124461,5.19298081 11.8288918,5.52226721 C11.9064027,5.63292903 11.9553948,5.74898725 11.9758694,5.87044534 C11.9919565,5.99190344 12,6.20175289 12,6.5 C12,6.81714059 11.9875692,7.03846091 11.9627072,7.16396761 C11.9510074,7.22739573 11.933458,7.28407532 11.9100585,7.3340081 C11.8851965,7.38259134 11.8552163,7.43319812 11.820117,7.48582996 C11.7265189,7.624832 11.5963609,7.73954071 11.4296393,7.82995951 C11.2643801,7.92712599 11.0618309,7.9757085 10.8219857,7.9757085 L9.7361066,7.9757085 L9.7361066,5.0242915 Z M10.2209132,7.55263158 L10.8000487,7.55263158 C11.0720683,7.55263158 11.2694989,7.46693743 11.3923464,7.29554656 C11.4464579,7.23211844 11.4808254,7.15182235 11.4954501,7.05465587 C11.5086124,6.95883893 11.5151934,6.77935354 11.5151934,6.51619433 C11.5151934,6.25978279 11.5086124,6.07624887 11.4954501,5.96558704 C11.4779005,5.85492522 11.4362207,5.76518253 11.3704095,5.69635628 C11.2358622,5.5249654 11.0457438,5.44197028 10.8000487,5.44736842 L10.2209132,5.44736842 L10.2209132,7.55263158 Z" id="LGD" stroke-width="0.5" fill="#000000" fill-rule="nonzero"></path>
                        <rect id="矩形备份" stroke-width="1.45454545" x="0.727272727" y="0.727272727" width="13.5454545" height="10.5454545" rx="1.45454545"></rect>
                    </g>
                </g>
            </g>
        </g>
    </g>
</svg>