<?xml version="1.0" encoding="UTF-8"?>
<svg width="1440px" height="1024px" viewBox="0 0 1440 1024" version="1.1" xmlns="http://www.w3.org/2000/svg" xmlns:xlink="http://www.w3.org/1999/xlink">
    <!-- Generator: Sketch 55.2 (78181) - https://sketchapp.com -->
    <title>download</title>
    <desc>Created with Sketch.</desc>
    <g id="系统监控" stroke="none" stroke-width="1" fill="none" fill-rule="evenodd">
        <g id="登陆" fill="#DBE8FF" fill-rule="nonzero">
            <g id="download" transform="translate(-227.000000, 0.000000)">
                <path d="M158.615059,779.649706 C158.615059,778.351674 159.66739,777.299411 160.965507,777.299411 C177.158845,777.28214 190.28183,764.160015 190.299103,747.967739 C190.299103,746.669707 191.351435,745.617444 192.649552,745.617444 C193.947668,745.617444 195,746.669707 195,747.967739 C194.974106,766.752502 179.751502,781.974108 160.965507,782 C159.66739,782 158.615059,780.947737 158.615059,779.649706 Z M38.3504484,430.991382 C37.0523316,430.991382 36,429.93912 36,428.641088 C36,427.343056 37.0523316,426.290794 38.3504484,426.290794 L70.5359219,426.290794 C85.4830683,426.273525 97.5958176,414.16157 97.6130876,399.215403 L97.6130876,298.560133 C97.6303632,281.017905 111.847772,266.801429 129.39115,266.784155 L169.552479,266.784155 C184.499625,266.766886 196.612374,254.654931 196.629644,239.708764 L196.629644,4.35029429 C196.629644,3.0522626 197.681976,2 198.980093,2 C200.278209,2 201.330541,3.0522626 201.330541,4.35029429 L201.330541,239.740102 C201.313265,257.28233 187.095857,271.498806 169.552479,271.51608 L129.37548,271.51608 C114.428334,271.533349 102.315585,283.645304 102.298315,298.591471 L102.298315,399.246741 C102.263802,416.770622 88.0609676,430.965519 70.5359219,430.991382 L38.3504484,430.991382 Z M263.460727,143.957775 C262.16261,143.957775 261.110279,142.905512 261.110279,141.607481 C261.110279,140.309449 262.16261,139.257186 263.460727,139.257186 L351.649552,139.257186 C352.947668,139.257186 354,140.309449 354,141.607481 C354,142.905512 352.947668,143.957775 351.649552,143.957775 L263.460727,143.957775 Z" id="形状"></path>
                <path d="M86.9254902,176.481357 C85.6259967,176.481357 84.572549,175.42911 84.572549,174.131099 C84.572549,172.833087 85.6259967,171.780841 86.9254902,171.780841 L156.14902,171.780841 C157.448513,171.780841 158.501961,172.833087 158.501961,174.131099 C158.501961,175.42911 157.448513,176.481357 156.14902,176.481357 L86.9254902,176.481357 Z M223.694118,176.481357 C222.394624,176.481357 221.341176,175.42911 221.341176,174.131099 C221.341176,172.833087 222.394624,171.780841 223.694118,171.780841 L243.694118,171.780841 C244.993611,171.780841 246.047059,172.833087 246.047059,174.131099 C246.047059,175.42911 244.993611,176.481357 243.694118,176.481357 L223.694118,176.481357 Z M13.9215686,80.7005157 C12.6220751,80.7005157 11.5686275,79.6482694 11.5686275,78.3502578 C11.5686275,77.0522463 12.6220751,76 13.9215686,76 L81.6705882,76 C82.9700818,76 84.0235294,77.0522463 84.0235294,78.3502578 C84.0235294,79.6482694 82.9700818,80.7005157 81.6705882,80.7005157 L13.9215686,80.7005157 Z M106.941176,80.7005157 C105.641683,80.7005157 104.588235,79.6482694 104.588235,78.3502578 C104.588235,77.0522463 105.641683,76 106.941176,76 L141.733333,76 C143.032827,76 144.086275,77.0522463 144.086275,78.3502578 C144.086275,79.6482694 143.032827,80.7005157 141.733333,80.7005157 L106.941176,80.7005157 Z M240.964706,80.7005157 C239.665212,80.7005157 238.611765,79.6482694 238.611765,78.3502578 C238.611765,77.0522463 239.665212,76 240.964706,76 L284.698039,76 C285.997533,76 287.05098,77.0522463 287.05098,78.3502578 C287.05098,79.6482694 285.997533,80.7005157 284.698039,80.7005157 L240.964706,80.7005157 Z M313.372549,80.7005157 C312.073055,80.7005157 311.019608,79.6482694 311.019608,78.3502578 C311.019608,77.0522463 312.073055,76 313.372549,76 L343.976471,76 C345.275964,76 346.329412,77.0522463 346.329412,78.3502578 C346.329412,79.6482694 345.275964,80.7005157 343.976471,80.7005157 L313.372549,80.7005157 Z M465.686275,80.7005157 C464.386781,80.7005157 463.333333,79.6482694 463.333333,78.3502578 C463.333333,77.0522463 464.386781,76 465.686275,76 L488.101961,76 C489.401454,76.0086534 490.447879,77.0679147 490.439322,78.3659262 C490.430552,79.6639378 489.370082,80.7091691 488.070588,80.7005157 L465.686275,80.7005157 Z M514.815686,80.7005157 C513.516193,80.7005157 512.462745,79.6482694 512.462745,78.3502578 C512.462745,77.0522463 513.516193,76 514.815686,76 L567.647059,76 C568.946552,76 570,77.0522463 570,78.3502578 C570,79.6482694 568.946552,80.7005157 567.647059,80.7005157 L514.815686,80.7005157 Z M122.235294,112.507338 L97.9058824,112.507338 C96.6063888,112.507338 95.5529412,111.455092 95.5529412,110.157081 C95.5529412,108.859069 96.6063888,107.806823 97.9058824,107.806823 L122.235294,107.806823 C123.534788,107.806823 124.588235,108.859069 124.588235,110.157081 C124.588235,111.455092 123.534788,112.507338 122.235294,112.507338 Z M145.498039,240.455375 C144.198546,240.455375 143.145098,239.403129 143.145098,238.105117 C143.145098,236.807105 144.198546,235.754859 145.498039,235.754859 L174.517647,235.754859 C175.817141,235.754859 176.870588,236.807105 176.870588,238.105117 C176.870588,239.403129 175.817141,240.455375 174.517647,240.455375 L145.498039,240.455375 Z M139.898039,272.262198 L57.2470588,272.262198 C55.9475653,272.262198 54.8941176,271.209951 54.8941176,269.91194 C54.8941176,268.613928 55.9475653,267.561682 57.2470588,267.561682 L139.898039,267.561682 C141.197533,267.561682 142.25098,268.613928 142.25098,269.91194 C142.25098,271.209951 141.197533,272.262198 139.898039,272.262198 Z M144.117647,208.288179 C142.818154,208.288179 141.764706,207.235933 141.764706,205.937921 C141.764706,204.63991 142.818154,203.587664 144.117647,203.587664 L167.945098,203.587664 C169.244592,203.587664 170.298039,204.63991 170.298039,205.937921 C170.298039,207.235933 169.244592,208.288179 167.945098,208.288179 L144.117647,208.288179 Z M72.854902,368.090044 L12.3529412,368.090044 C11.0534476,368.090044 10,367.037797 10,365.739786 C10,364.441774 11.0534476,363.389528 12.3529412,363.389528 L72.9019608,363.389528 C74.2014543,363.402508 75.2443675,364.465277 75.2314927,365.763288 C75.2183776,367.0613 74.1543955,368.103024 72.854902,368.090044 Z M126.235294,368.090044 C124.935801,368.090044 123.882353,367.037797 123.882353,365.739786 C123.882353,364.441774 124.935801,363.389528 126.235294,363.389528 L160.745098,363.389528 C162.044592,363.389528 163.098039,364.441774 163.098039,365.739786 C163.098039,367.037797 162.044592,368.090044 160.745098,368.090044 L126.235294,368.090044 Z M280.980392,368.090044 C279.680899,368.090044 278.627451,367.037797 278.627451,365.739786 C278.627451,364.441774 279.680899,363.389528 280.980392,363.389528 L307.380392,363.389528 C308.679886,363.389528 309.733333,364.441774 309.733333,365.739786 C309.733333,367.037797 308.679886,368.090044 307.380392,368.090044 L280.980392,368.090044 Z M333.623529,368.090044 C332.324036,368.090044 331.270588,367.037797 331.270588,365.739786 C331.270588,364.441774 332.324036,363.389502 333.623529,363.389502 L394.517647,363.389502 C395.358272,363.386729 396.136536,363.832099 396.559276,364.557872 C396.982015,365.283645 396.985005,366.179558 396.567119,366.90813 C396.149233,367.636702 395.373958,368.087245 394.533333,368.090044 L333.623529,368.090044 Z M224.556863,399.896866 C223.257369,399.896866 222.203922,398.84462 222.203922,397.546608 C222.203922,396.248597 223.257369,395.196351 224.556863,395.196351 L261.137255,395.196351 C262.436748,395.196351 263.490196,396.248597 263.490196,397.546608 C263.490196,398.84462 262.436748,399.896866 261.137255,399.896866 L224.556863,399.896866 Z M177.231373,304.116025 C175.931879,304.116025 174.878431,303.063779 174.878431,301.765768 C174.878431,300.467756 175.931879,299.41551 177.231373,299.41551 L201.905882,299.41551 C202.746507,299.41551 203.523277,299.863466 203.943589,300.590639 C204.363902,301.317811 204.363902,302.213724 203.943589,302.940897 C203.523277,303.668069 202.746507,304.116025 201.905882,304.116025 L177.231373,304.116025 Z M230.752941,304.116025 C229.453448,304.116025 228.4,303.063779 228.4,301.765768 C228.4,300.467756 229.453448,299.41551 230.752941,299.41551 L301.858824,299.41551 C302.699449,299.41551 303.476218,299.863466 303.896531,300.590639 C304.316843,301.317811 304.316843,302.213724 303.896531,302.940897 C303.476218,303.668069 302.699449,304.116025 301.858824,304.116025 L230.752941,304.116025 Z M324.870588,304.116025 C323.571095,304.116025 322.517647,303.063779 322.517647,301.765768 C322.517647,300.467756 323.571095,299.41551 324.870588,299.41551 L361.670588,299.41551 C362.511213,299.41551 363.287983,299.863466 363.708295,300.590639 C364.128608,301.317811 364.128608,302.213724 363.708295,302.940897 C363.287983,303.668069 362.511213,304.116025 361.670588,304.116025 L324.870588,304.116025 Z M126.156863,335.922848 C124.857369,335.922848 123.803922,334.870602 123.803922,333.57259 C123.803922,332.274579 124.857369,331.222332 126.156863,331.222332 L217.984314,331.222332 C219.283807,331.222332 220.337255,332.274579 220.337255,333.57259 C220.337255,334.870602 219.283807,335.922848 217.984314,335.922848 L126.156863,335.922848 Z M331.129412,335.922848 L263.913725,335.922848 C262.614232,335.922848 261.560784,334.870602 261.560784,333.57259 C261.560784,332.274579 262.614232,331.222332 263.913725,331.222332 L331.129412,331.222332 C332.428905,331.222332 333.482353,332.274579 333.482353,333.57259 C333.482353,334.870602 332.428905,335.922848 331.129412,335.922848 Z M443.270588,335.922848 L354.831373,335.922848 C353.531879,335.922848 352.478431,334.870602 352.478431,333.57259 C352.478431,332.274579 353.531879,331.222319 354.831373,331.222319 L443.254902,331.222319 C444.095527,331.219533 444.873791,331.664904 445.29653,332.390677 C445.71927,333.11645 445.722259,334.012363 445.304374,334.740935 C444.886488,335.469506 444.111213,335.920049 443.270588,335.922848 Z M57.5137255,335.922848 L24.1333333,335.922848 C22.8338398,335.922848 21.7803922,334.870602 21.7803922,333.57259 C21.7803922,332.274579 22.8338398,331.222332 24.1333333,331.222332 L57.5137255,331.222332 C58.813219,331.222332 59.8666667,332.274579 59.8666667,333.57259 C59.8666667,334.870602 58.813219,335.922848 57.5137255,335.922848 Z M61.4509804,463.870885 C60.1514869,463.870885 59.0980392,462.818638 59.0980392,461.520627 C59.0980392,460.222615 60.1514869,459.170369 61.4509804,459.170369 L118.188235,459.170369 C119.487729,459.170369 120.541176,460.222615 120.541176,461.520627 C120.541176,462.818638 119.487729,463.870885 118.188235,463.870885 L61.4509804,463.870885 Z M191.176471,463.870885 L142.909804,463.870885 C141.61031,463.870885 140.556863,462.818638 140.556863,461.520627 C140.556863,460.222615 141.61031,459.170369 142.909804,459.170369 L191.176471,459.170369 C192.475964,459.170369 193.529412,460.222615 193.529412,461.520627 C193.529412,462.818638 192.475964,463.870885 191.176471,463.870885 Z M289.356863,463.870885 C288.057369,463.870885 287.003922,462.818638 287.003922,461.520627 C287.003922,460.222615 288.057369,459.170369 289.356863,459.170369 L344.384314,459.170369 C345.683807,459.170369 346.737255,460.222615 346.737255,461.520627 C346.737255,462.818638 345.683807,463.870885 344.384314,463.870885 L289.356863,463.870885 Z M112.4,431.703689 C111.100506,431.703689 110.047059,430.651443 110.047059,429.353431 C110.047059,428.05542 111.100506,427.003173 112.4,427.003173 L149.780392,427.003173 C151.079886,427.003173 152.133333,428.05542 152.133333,429.353431 C152.133333,430.651443 151.079886,431.703689 149.780392,431.703689 L112.4,431.703689 Z M185.294118,431.703689 L168.039216,431.703689 C166.739722,431.703689 165.686275,430.651443 165.686275,429.353431 C165.686275,428.05542 166.739722,427.003173 168.039216,427.003173 L185.294118,427.003173 C186.593611,427.003173 187.647059,428.05542 187.647059,429.353431 C187.647059,430.651443 186.593611,431.703689 185.294118,431.703689 Z M205.984314,591.458562 L163.945098,591.458562 C162.645605,591.458562 161.592157,590.406302 161.592157,589.10829 C161.592157,587.810279 162.645605,586.758033 163.945098,586.758033 L206,586.758033 C207.299493,586.762359 208.34943,587.818113 208.345111,589.116125 C208.340766,590.414136 207.283807,591.462875 205.984314,591.458562 Z M255.098039,623.265371 L241.2,623.265371 C239.900506,623.265371 238.847059,622.213125 238.847059,620.915113 C238.847059,619.617101 239.900506,618.564855 241.2,618.564855 L255.098039,618.564855 C256.397533,618.564855 257.45098,619.617101 257.45098,620.915113 C257.45098,622.213125 256.397533,623.265371 255.098039,623.265371 Z M85.4039216,527.48453 L13.9215686,527.48453 C12.6220751,527.48453 11.5686275,526.432284 11.5686275,525.134272 C11.5686275,523.836261 12.6220751,522.784014 13.9215686,522.784014 L85.4509804,522.784014 C86.2916054,522.792411 87.0638903,523.248126 87.4769228,523.979497 C87.8899554,524.710868 87.880986,525.606781 87.4533934,526.329755 C87.0258009,527.052729 86.2445466,527.492927 85.4039216,527.48453 Z M290,527.48453 L263.019608,527.48453 C261.720114,527.48453 260.666667,526.432284 260.666667,525.134272 C260.666667,523.836261 261.720114,522.784014 263.019608,522.784014 L290,522.784014 C291.299494,522.784014 292.352941,523.836261 292.352941,525.134272 C292.352941,526.432284 291.299494,527.48453 290,527.48453 Z M92.3529412,559.291353 C91.0534476,559.291353 90,558.239106 90,556.941095 C90,555.643083 91.0534476,554.590837 92.3529412,554.590837 L124.337255,554.590837 C125.636748,554.590837 126.690196,555.643083 126.690196,556.941095 C126.690196,558.239106 125.636748,559.291353 124.337255,559.291353 L92.3529412,559.291353 Z M205.984314,559.291353 L146.596078,559.291353 C145.296585,559.291353 144.243137,558.239106 144.243137,556.941095 C144.243137,555.643083 145.296585,554.590837 146.596078,554.590837 L205.984314,554.590837 C207.283807,554.590837 208.337255,555.643083 208.337255,556.941095 C208.337255,558.239106 207.283807,559.291353 205.984314,559.291353 Z M286.329412,559.291353 L248.258824,559.291353 C246.95933,559.291353 245.905882,558.239106 245.905882,556.941095 C245.905882,555.643083 246.95933,554.590837 248.258824,554.590837 L286.329412,554.590837 C287.628905,554.590837 288.682353,555.643083 288.682353,556.941095 C288.682353,558.239106 287.628905,559.291353 286.329412,559.291353 Z M315.396078,559.291353 L301.278431,559.291353 C299.978938,559.291353 298.92549,558.239106 298.92549,556.941095 C298.92549,555.643083 299.978938,554.590837 301.278431,554.590837 L315.396078,554.590837 C316.695572,554.590837 317.74902,555.643083 317.74902,556.941095 C317.74902,558.239106 316.695572,559.291353 315.396078,559.291353 Z M126.094118,687.239389 C124.794624,687.239389 123.741176,686.187143 123.741176,684.889131 C123.741176,683.59112 124.794624,682.538873 126.094118,682.538873 L189.2,682.538873 C190.499494,682.538873 191.552941,683.59112 191.552941,684.889131 C191.552941,686.187143 190.499494,687.239389 189.2,687.239389 L126.094118,687.239389 Z M39.5529412,687.067037 C38.2534476,687.067037 37.2,686.014791 37.2,684.716779 C37.2,683.418767 38.2534476,682.366521 39.5529412,682.366521 L99.1607843,682.366521 C100.460278,682.366521 101.513725,683.418767 101.513725,684.716779 C101.513725,686.014791 100.460278,687.067037 99.1607843,687.067037 L39.5529412,687.067037 Z M111.6,719.046212 L93.3411765,719.046212 C92.0416829,719.046212 90.9882353,717.993966 90.9882353,716.695954 C90.9882353,715.397942 92.0416829,714.345696 93.3411765,714.345696 L111.6,714.345696 C112.899494,714.345696 113.952941,715.397942 113.952941,716.695954 C113.952941,717.993966 112.899494,719.046212 111.6,719.046212 Z M288.698039,719.046238 C287.398546,719.046238 286.345098,717.993966 286.345098,716.695954 C286.345098,715.397942 287.398546,714.345696 288.698039,714.345696 L324.886275,714.345696 C326.185768,714.350023 327.235704,715.405777 327.231399,716.703788 C327.227041,718.0018 326.170082,719.050538 324.870588,719.046238 L288.698039,719.046238 Z M102.8,655.072194 C101.500506,655.072194 100.447059,654.019947 100.447059,652.721936 C100.447059,651.423924 101.500506,650.371678 102.8,650.371678 L128.290196,650.371678 C129.58969,650.371678 130.643137,651.423924 130.643137,652.721936 C130.643137,654.019947 129.58969,655.072194 128.290196,655.072194 L102.8,655.072194 Z M151.662745,655.072194 C150.363252,655.072194 149.309804,654.019947 149.309804,652.721936 C149.309804,651.423924 150.363252,650.371678 151.662745,650.371678 L165.403922,650.371678 C166.703415,650.371678 167.756863,651.423924 167.756863,652.721936 C167.756863,654.019947 166.703415,655.072194 165.403922,655.072194 L151.662745,655.072194 Z M311.254902,1023.93733 C309.955408,1023.93733 308.901961,1022.88508 308.901961,1021.58707 L308.901961,1001.21817 C308.850161,986.305368 296.741671,974.2387 281.811765,974.221539 L154.12549,974.346886 C145.688455,974.388544 137.580422,971.080665 131.585119,965.150968 C125.589816,959.22127 122.198363,951.155499 122.156863,942.728084 L121.858824,853.418286 L121.858824,844.45597 C121.867553,828.157513 108.669926,814.925879 92.3529412,814.874058 L44.0862745,814.874058 C42.786781,814.874058 41.7333333,813.821812 41.7333333,812.5238 C41.7333333,811.225789 42.786781,810.173542 44.0862745,810.173542 L92.3529412,810.173542 C111.271483,810.199434 126.601529,825.511998 126.627451,844.408965 L126.627451,853.355613 L126.92549,942.665411 C126.96007,957.587909 139.076113,969.669112 154.015686,969.677707 L281.701961,969.55236 C299.251733,969.560942 313.486188,983.751134 313.529412,1001.28084 L313.529412,1021.64974 C313.529412,1022.94775 312.475964,1024 311.176471,1024 L311.254902,1023.93733 Z M178.313725,814.874058 L133.247059,814.874058 C131.947565,814.874058 130.894118,813.821812 130.894118,812.5238 C130.894118,811.225789 131.947565,810.173542 133.247059,810.173542 L178.313725,810.173542 C179.613219,810.173542 180.666667,811.225789 180.666667,812.5238 C180.666667,813.821812 179.613219,814.874058 178.313725,814.874058 Z M202.392157,814.874058 C201.092663,814.874058 200.039216,813.821812 200.039216,812.5238 C200.039216,811.225789 201.092663,810.173542 202.392157,810.173542 L301.215686,810.173542 C302.51518,810.173542 303.568627,811.225789 303.568627,812.5238 C303.568627,813.821812 302.51518,814.874058 301.215686,814.874058 L202.392157,814.874058 Z" id="形状"></path>
                <path d="M101.473501,846.57065 L80.3573563,846.57065 C79.0586787,846.57065 78.0058925,845.518277 78.0058925,844.22011 C78.0058925,842.921942 79.0586787,841.869569 80.3573563,841.869569 L101.473501,841.869569 C102.772179,841.869569 103.824965,842.921942 103.824965,844.22011 C103.824965,845.518277 102.772179,846.57065 101.473501,846.57065 Z M173.130441,750.778291 C171.831764,750.778291 170.778978,749.725919 170.778978,748.427751 C170.778978,747.129583 171.831764,746.07721 173.130441,746.07721 L236.118318,746.07721 C237.416996,746.07721 238.469782,747.129583 238.469782,748.427751 C238.469782,749.725919 237.416996,750.778291 236.118318,750.778291 L173.130441,750.778291 Z M64.2263146,782.588939 L12.6508752,782.588939 C11.3521976,782.588939 10.2994114,781.536566 10.2994114,780.238398 C10.2994114,778.940231 11.3521976,777.887858 12.6508752,777.887858 L64.2263146,777.887858 C65.5249922,777.887858 66.5777784,778.940231 66.5777784,780.238398 C66.5777784,781.536566 65.5249922,782.588939 64.2263146,782.588939 Z M208.606192,782.588939 L154.161967,782.588939 C152.863289,782.588939 151.810503,781.536566 151.810503,780.238398 C151.810503,778.940231 152.863289,777.887858 154.161967,777.887858 L208.606192,777.887858 C209.90487,777.887858 210.957656,778.940231 210.957656,780.238398 C210.957656,781.536566 209.90487,782.588939 208.606192,782.588939 Z M241.213157,782.588939 L230.741304,782.588939 C229.442627,782.588939 228.389841,781.536566 228.389841,780.238398 C228.389841,778.940231 229.442627,777.887858 230.741304,777.887858 L241.213157,777.887858 C242.511834,777.887858 243.56462,778.940231 243.56462,780.238398 C243.56462,781.536566 242.511834,782.588939 241.213157,782.588939 Z M197.867841,910.48968 C196.569163,910.48968 195.516377,909.437307 195.516377,908.13914 C195.516377,906.840972 196.569163,905.788599 197.867841,905.788599 L249.020016,905.788599 C250.318694,905.788599 251.37148,906.840972 251.37148,908.13914 C251.37148,909.437307 250.318694,910.48968 249.020016,910.48968 L197.867841,910.48968 Z M268.69393,910.48968 C267.395253,910.48968 266.342466,909.437307 266.342466,908.13914 C266.342466,906.840972 267.395253,905.788599 268.69393,905.788599 L289.91981,905.788599 C291.218488,905.788599 292.271274,906.840972 292.271274,908.13914 C292.271274,909.437307 291.218488,910.48968 289.91981,910.48968 L268.69393,910.48968 Z M153.378145,942.363009 C152.079468,942.363009 151.026682,941.310636 151.026682,940.012468 C151.026682,938.714301 152.079468,937.661928 153.378145,937.661928 L222.448475,937.661928 C223.747153,937.661928 224.799939,938.714301 224.799939,940.012468 C224.799939,941.310636 223.747153,942.363009 222.448475,942.363009 L153.378145,942.363009 Z M54.2717845,878.381297 L2.3514638,878.381297 C1.0527862,878.381297 0,877.328925 0,876.030757 C0,874.732589 1.0527862,873.680217 2.3514638,873.680217 L54.2717845,873.680217 C55.5704621,873.680217 56.6232483,874.732589 56.6232483,876.030757 C56.6232483,877.328925 55.5704621,878.381297 54.2717845,878.381297 Z M205.470907,878.381297 L174.729437,878.381297 C173.430759,878.381297 172.377973,877.328925 172.377973,876.030757 C172.377973,874.732589 173.430759,873.680217 174.729437,873.680217 L205.470907,873.680217 C206.769584,873.680217 207.822371,874.732589 207.822371,876.030757 C207.822371,877.328925 206.769584,878.381297 205.470907,878.381297 Z M261.623862,878.381297 L226.963286,878.381297 C225.664608,878.381297 224.611822,877.328925 224.611822,876.030757 C224.611822,874.732589 225.664608,873.680217 226.963286,873.680217 L261.623862,873.680217 C262.92254,873.680217 263.975326,874.732589 263.975326,876.030757 C263.975326,877.328925 262.92254,878.381297 261.623862,878.381297 Z M515.738717,942.363009 C514.440039,942.363009 513.387253,941.310636 513.387253,940.012468 C513.387253,938.714301 514.440039,937.661928 515.738717,937.661928 L578.224948,937.661928 C579.523626,937.661928 580.576412,938.714301 580.576412,940.012468 C580.576412,941.310636 579.523626,942.363009 578.224948,942.363009 L515.738717,942.363009 Z M1716.26883,144.4648 L1635.22171,144.4648 C1633.92303,144.4648 1632.87025,143.412427 1632.87025,142.114259 C1632.87025,140.816092 1633.92303,139.763719 1635.22171,139.763719 L1716.26883,139.763719 C1717.56751,139.763719 1718.6203,140.816092 1718.6203,142.114259 C1718.6203,143.412427 1717.56751,144.4648 1716.26883,144.4648 Z M1567.87579,144.4648 C1566.57711,144.4648 1565.52433,143.412427 1565.52433,142.114259 C1565.52433,140.816092 1566.57711,139.763719 1567.87579,139.763719 L1616.99003,139.763719 C1618.28871,139.763719 1619.34149,140.816092 1619.34149,142.114259 C1619.34149,143.412427 1618.28871,144.4648 1616.99003,144.4648 L1567.87579,144.4648 Z M1491.97054,144.4648 L1447.54355,144.4648 C1446.24487,144.4648 1445.19208,143.412427 1445.19208,142.114259 C1445.19208,140.816092 1446.24487,139.763719 1447.54355,139.763719 L1491.97054,139.763719 C1493.26922,139.763719 1494.322,140.816092 1494.322,142.114259 C1494.322,143.412427 1493.26922,144.4648 1491.97054,144.4648 Z M1846.38316,144.4648 C1845.08448,144.4648 1844.0317,143.412427 1844.0317,142.114259 C1844.0317,140.816092 1845.08448,139.763719 1846.38316,139.763719 L1885.48017,139.763719 C1886.32026,139.772117 1887.09206,140.227887 1887.50484,140.959345 C1887.91761,141.690804 1887.90865,142.586825 1887.48132,143.309886 C1887.054,144.032947 1886.27323,144.473197 1885.43314,144.4648 L1846.38316,144.4648 Z M1613.43148,176.275447 C1612.1328,176.275447 1611.08002,175.223074 1611.08002,173.924907 C1611.08002,172.626739 1612.1328,171.574366 1613.43148,171.574366 L1637.8867,171.574366 C1639.18538,171.574366 1640.23817,172.626739 1640.23817,173.924907 C1640.23817,175.223074 1639.18538,176.275447 1637.8867,176.275447 L1613.43148,176.275447 Z M1673.94248,80.4830887 C1672.64381,80.4830887 1671.59102,79.4307158 1671.59102,78.1325482 C1671.59102,76.8343806 1672.64381,75.7820077 1673.94248,75.7820077 L1773.6132,75.7820077 C1774.91187,75.7863351 1775.96115,76.8422157 1775.95689,78.1403833 C1775.95249,79.4385509 1774.8962,80.4874158 1773.59752,80.4830887 L1673.94248,80.4830887 Z M1468.29914,80.4830887 C1467.00046,80.4830887 1465.94767,79.4307158 1465.94767,78.1325482 C1465.94767,76.8343806 1467.00046,75.7820077 1468.29914,75.7820077 L1492.50354,75.7820077 C1493.80221,75.7820077 1494.855,76.8343806 1494.855,78.1325482 C1494.855,79.4307158 1493.80221,80.4830887 1492.50354,80.4830887 L1468.29914,80.4830887 Z M1295.85846,80.4830887 C1294.55978,80.4830887 1293.50699,79.4307158 1293.50699,78.1325482 C1293.50699,76.8343806 1294.55978,75.7820077 1295.85846,75.7820077 L1447.52787,75.7820077 C1448.82655,75.7820077 1449.87934,76.8343806 1449.87934,78.1325482 C1449.87934,79.4307158 1448.82655,80.4830887 1447.52787,80.4830887 L1295.85846,80.4830887 Z M1794.16499,80.4830887 C1792.86631,80.4830887 1791.81353,79.4307158 1791.81353,78.1325482 C1791.81353,76.8343806 1792.86631,75.7820077 1794.16499,75.7820077 L1814.3719,75.7820077 C1815.67058,75.7820077 1816.72336,76.8343806 1816.72336,78.1325482 C1816.72336,79.4307158 1815.67058,80.4830887 1814.3719,80.4830887 L1794.16499,80.4830887 Z M1404.69988,112.293736 L1369.81983,112.293736 C1368.52115,112.293736 1367.46837,111.241363 1367.46837,109.943196 C1367.46837,108.645028 1368.52115,107.592655 1369.81983,107.592655 L1404.73123,107.592655 C1406.02991,107.60131 1407.07568,108.660698 1407.06723,109.958866 C1407.05836,111.257034 1405.99856,112.302391 1404.69988,112.293736 Z M1738.35691,112.293736 L1692.75419,112.293736 C1691.45552,112.293736 1690.40273,111.241363 1690.40273,109.943196 C1690.40273,108.645028 1691.45552,107.592655 1692.75419,107.592655 L1738.35691,107.592655 C1739.65559,107.592655 1740.70838,108.645028 1740.70838,109.943196 C1740.70838,111.241363 1739.65559,112.293736 1738.35691,112.293736 Z M1691.82928,48.6097601 L1643.82807,48.6097601 C1642.52939,48.6097601 1641.47661,47.5573873 1641.47661,46.2592196 C1641.47661,44.961052 1642.52939,43.9086792 1643.82807,43.9086792 L1691.82928,43.9086792 C1693.12796,43.9086792 1694.18075,44.961052 1694.18075,46.2592196 C1694.18075,47.5573873 1693.12796,48.6097601 1691.82928,48.6097601 Z M1362.76544,48.6097601 C1361.46676,48.6097601 1360.41398,47.5573873 1360.41398,46.2592196 C1360.41398,44.961052 1361.46676,43.9086792 1362.76544,43.9086792 L1421.26986,43.9086792 C1422.56854,43.904352 1423.62483,44.9532169 1423.62923,46.2513845 C1423.63349,47.5495521 1422.58421,48.6054328 1421.28554,48.6097601 L1362.76544,48.6097601 Z M1335.3317,48.6097601 L1156.62045,48.6097601 C1155.32177,48.6097601 1154.26898,47.5573873 1154.26898,46.2592196 C1154.26898,44.961052 1155.32177,43.9086792 1156.62045,43.9086792 L1335.3317,43.9086792 C1336.63037,43.9086792 1337.68316,44.961052 1337.68316,46.2592196 C1337.68316,47.5573873 1336.63037,48.6097601 1335.3317,48.6097601 Z M501.755346,48.6248469 C500.456668,48.6248469 499.403882,47.5724741 499.403882,46.2743064 C499.403882,44.9761388 500.456668,43.923766 501.755346,43.923766 L625.191519,43.923766 C626.031616,43.9321636 626.803416,44.3879338 627.216189,45.1193924 C627.628962,45.850851 627.619998,46.746872 627.192674,47.4699329 C626.76535,48.1929939 625.984587,48.6332446 625.144489,48.6248469 L501.755346,48.6248469 Z M712.493531,48.6248469 L646.950397,48.6248469 C645.651719,48.6248469 644.598933,47.5724741 644.598933,46.2743064 C644.598933,44.9761388 645.651719,43.923766 646.950397,43.923766 L712.493531,43.923766 C713.792209,43.923766 714.844995,44.9761388 714.844995,46.2743064 C714.844995,47.5724741 713.792209,48.6248469 712.493531,48.6248469 Z M1706.97271,240.257158 L1692.75419,240.257158 C1691.45552,240.257158 1690.40273,239.204786 1690.40273,237.906618 C1690.40273,236.60845 1691.45552,235.556078 1692.75419,235.556078 L1706.97271,235.556078 C1708.27139,235.556078 1709.32417,236.60845 1709.32417,237.906618 C1709.32417,239.204786 1708.27139,240.257158 1706.97271,240.257158 Z M1788.25498,240.257158 L1732.94855,240.257158 C1731.64987,240.257158 1730.59708,239.204786 1730.59708,237.906618 C1730.59708,236.60845 1731.64987,235.556078 1732.94855,235.556078 L1788.25498,235.556078 C1789.55365,235.556078 1790.60644,236.60845 1790.60644,237.906618 C1790.60644,239.204786 1789.55365,240.257158 1788.25498,240.257158 Z M1604.29213,272.067806 C1602.99345,272.067806 1601.94066,271.015433 1601.94066,269.717265 C1601.94066,268.419098 1602.99345,267.366725 1604.29213,267.366725 L1641.61769,267.366725 C1642.91637,267.366725 1643.96916,268.419098 1643.96916,269.717265 C1643.96916,271.015433 1642.91637,272.067806 1641.61769,272.067806 L1604.29213,272.067806 Z M1788.52148,272.067806 C1787.2228,272.067806 1786.17001,271.015433 1786.17001,269.717265 C1786.17001,268.419098 1787.2228,267.366725 1788.52148,267.366725 L1842.22891,267.366725 C1843.52759,267.366725 1844.58037,268.419098 1844.58037,269.717265 C1844.58037,271.015433 1843.52759,272.067806 1842.22891,272.067806 L1788.52148,272.067806 Z M1778.45721,208.086095 L1749.56556,208.086095 C1748.26688,208.086095 1747.21409,207.033722 1747.21409,205.735554 C1747.21409,204.437387 1748.26688,203.385014 1749.56556,203.385014 L1778.45721,203.385014 C1779.75589,203.385014 1780.80867,204.437387 1780.80867,205.735554 C1780.80867,207.033722 1779.75589,208.086095 1778.45721,208.086095 Z M1573.61336,367.907175 C1572.31468,367.907175 1571.2619,366.854803 1571.2619,365.556635 C1571.2619,364.258467 1572.31468,363.206094 1573.61336,363.206094 L1593.08348,363.206094 C1594.38216,363.206094 1595.43494,364.258467 1595.43494,365.556635 C1595.43494,366.854803 1594.38216,367.907175 1593.08348,367.907175 L1573.61336,367.907175 Z M1651.61925,367.907175 L1613.72933,367.907175 C1612.43066,367.907175 1611.37787,366.854803 1611.37787,365.556635 C1611.37787,364.258467 1612.43066,363.206094 1613.72933,363.206094 L1651.61925,363.206094 C1652.91793,363.206094 1653.97072,364.258467 1653.97072,365.556635 C1653.97072,366.854803 1652.91793,367.907175 1651.61925,367.907175 Z M1715.0931,367.907175 L1692.75419,367.907175 C1691.45552,367.907175 1690.40273,366.854803 1690.40273,365.556635 C1690.40273,364.258467 1691.45552,363.206094 1692.75419,363.206094 L1715.0931,363.206094 C1716.39178,363.206094 1717.44456,364.258467 1717.44456,365.556635 C1717.44456,366.854803 1716.39178,367.907175 1715.0931,367.907175 Z M1797.12783,367.907175 L1738.35691,367.907175 C1737.05824,367.907175 1736.00545,366.854803 1736.00545,365.556635 C1736.00545,364.258467 1737.05824,363.206094 1738.35691,363.206094 L1797.12783,363.206094 C1798.42651,363.206094 1799.4793,364.258467 1799.4793,365.556635 C1799.4793,366.854803 1798.42651,367.907175 1797.12783,367.907175 Z M1852.35588,367.907175 C1851.0572,367.907175 1850.00442,366.854803 1850.00442,365.556635 C1850.00442,364.258467 1851.0572,363.206094 1852.35588,363.206094 L1883.91252,363.206094 C1885.2112,363.206094 1886.26399,364.258467 1886.26399,365.556635 C1886.26399,366.854803 1885.2112,367.907175 1883.91252,367.907175 L1852.35588,367.907175 Z M1749.54988,303.925464 C1748.2512,303.925464 1747.19842,302.873091 1747.19842,301.574924 C1747.19842,300.276756 1748.2512,299.224383 1749.54988,299.224383 L1815.81413,299.224383 C1816.65423,299.224383 1817.43051,299.672394 1817.85056,300.399653 C1818.27061,301.126913 1818.27061,302.022934 1817.85056,302.750194 C1817.43051,303.477454 1816.65423,303.925464 1815.81413,303.925464 L1749.54988,303.925464 Z M1691.82928,335.736112 C1690.53061,335.736112 1689.47782,334.683739 1689.47782,333.385571 C1689.47782,332.087404 1690.53061,331.035031 1691.82928,331.035031 L1736.78927,331.035031 C1738.08795,331.035031 1739.14074,332.087404 1739.14074,333.385571 C1739.14074,334.683739 1738.08795,335.736112 1736.78927,335.736112 L1691.82928,335.736112 Z M1778.45721,335.736112 L1761.91858,335.736112 C1760.6199,335.736112 1759.56712,334.683739 1759.56712,333.385571 C1759.56712,332.087404 1760.6199,331.035031 1761.91858,331.035031 L1778.45721,331.035031 C1779.75589,331.035031 1780.80867,332.087404 1780.80867,333.385571 C1780.80867,334.683739 1779.75589,335.736112 1778.45721,335.736112 Z M1583.01922,464.295004 C1581.72054,464.295004 1580.66775,463.242631 1580.66775,461.944464 C1580.66775,460.646296 1581.72054,459.593923 1583.01922,459.593923 L1625.47098,459.593923 C1626.76965,459.580942 1627.83297,460.622791 1627.84595,461.920958 C1627.85894,463.219126 1626.81668,464.282023 1625.51801,464.295004 L1583.01922,464.295004 Z M1691.82928,464.295004 L1650.7257,464.295004 C1649.42702,464.295004 1648.37423,463.242631 1648.37423,461.944464 C1648.37423,460.646296 1649.42702,459.593923 1650.7257,459.593923 L1691.82928,459.593923 C1693.12796,459.593923 1694.18075,460.646296 1694.18075,461.944464 C1694.18075,463.242631 1693.12796,464.295004 1691.82928,464.295004 Z M1797.12783,464.295004 L1719.63926,464.295004 C1718.34059,464.295004 1717.2878,463.242631 1717.2878,461.944464 C1717.2878,460.646296 1718.34059,459.593923 1719.63926,459.593923 L1797.12783,459.593923 C1798.42651,459.593923 1799.4793,460.646296 1799.4793,461.944464 C1799.4793,463.242631 1798.42651,464.295004 1797.12783,464.295004 Z M1598.13129,495.510182 L1552.66966,495.510182 C1551.37098,495.510182 1550.31819,494.457809 1550.31819,493.159641 C1550.31819,491.861473 1551.37098,490.809101 1552.66966,490.809101 L1598.13129,490.809101 C1599.42997,490.809101 1600.48275,491.861473 1600.48275,493.159641 C1600.48275,494.457809 1599.42997,495.510182 1598.13129,495.510182 Z M1880.04045,527.258148 L1842.07214,527.258148 C1840.77347,527.258148 1839.72068,526.205775 1839.72068,524.907607 C1839.72068,523.60944 1840.77347,522.557067 1842.07214,522.557067 L1880.04045,522.557067 C1881.33912,522.557067 1882.39191,523.60944 1882.39191,524.907607 C1882.39191,526.205775 1881.33912,527.258148 1880.04045,527.258148 Z M1664.92854,431.52847 L1641.02199,431.52847 C1639.72331,431.52847 1638.67053,430.476098 1638.67053,429.17793 C1638.67053,427.879762 1639.72331,426.827389 1641.02199,426.827389 L1664.85016,426.827389 C1666.14883,426.805753 1667.21917,427.840587 1667.24081,429.138754 C1667.26246,430.436922 1666.22722,431.506834 1664.92854,431.52847 Z M1735.75463,431.52847 L1690.49679,431.52847 C1689.19811,431.52847 1688.14532,430.476098 1688.14532,429.17793 C1688.14532,427.879762 1689.19811,426.827389 1690.49679,426.827389 L1735.75463,426.827389 C1737.05331,426.827389 1738.10609,427.879762 1738.10609,429.17793 C1738.10609,430.476098 1737.05331,431.52847 1735.75463,431.52847 Z M1888.30192,431.52847 L1842.05647,431.52847 C1840.75779,431.52847 1839.705,430.476098 1839.705,429.17793 C1839.705,427.879762 1840.75779,426.827389 1842.05647,426.827389 L1888.30192,426.827389 C1889.6006,426.827389 1890.65339,427.879762 1890.65339,429.17793 C1890.65339,430.476098 1889.6006,431.52847 1888.30192,431.52847 Z M1718.6203,591.30254 L1652.15225,591.30254 C1650.85357,591.30254 1649.80079,590.250167 1649.80079,588.952 C1649.80079,587.653832 1650.85357,586.601459 1652.15225,586.601459 L1718.6203,586.601459 C1719.91897,586.601459 1720.97176,587.653832 1720.97176,588.952 C1720.97176,590.250167 1719.91897,591.30254 1718.6203,591.30254 Z M1773.81699,591.30254 L1741.35111,591.30254 C1740.05243,591.30254 1738.99965,590.250167 1738.99965,588.952 C1738.99965,587.653832 1740.05243,586.601459 1741.35111,586.601459 L1773.76996,586.601459 C1775.06864,586.588478 1776.13195,587.630327 1776.14494,588.928494 C1776.15792,590.226662 1775.11567,591.289559 1773.81699,591.30254 Z M1877.83007,623.113188 L1842.05647,623.113188 C1840.75779,623.113188 1839.705,622.060815 1839.705,620.762647 C1839.705,619.46448 1840.75779,618.412107 1842.05647,618.412107 L1877.83007,618.412107 C1879.12875,618.412107 1880.18153,619.46448 1880.18153,620.762647 C1880.18153,622.060815 1879.12875,623.113188 1877.83007,623.113188 Z M1795.56019,527.320829 L1747.98224,527.320829 C1746.68356,527.320829 1745.63078,526.268456 1745.63078,524.970289 C1745.63078,523.672121 1746.68356,522.619748 1747.98224,522.619748 L1795.56019,522.619748 C1796.85887,522.619748 1797.91165,523.672121 1797.91165,524.970289 C1797.91165,526.268456 1796.85887,527.320829 1795.56019,527.320829 Z M1688.9605,559.131476 L1674.55386,559.131476 C1673.25519,559.131476 1672.2024,558.079104 1672.2024,556.780936 C1672.2024,555.482768 1673.25519,554.430396 1674.55386,554.430396 L1688.9605,554.430396 C1690.25918,554.430396 1691.31196,555.482768 1691.31196,556.780936 C1691.31196,558.079104 1690.25918,559.131476 1688.9605,559.131476 Z M1741.35111,559.131476 L1708.2425,559.131476 C1706.94382,559.131476 1705.89104,558.079104 1705.89104,556.780936 C1705.89104,555.482768 1706.94382,554.430396 1708.2425,554.430396 L1741.35111,554.430396 C1742.64979,554.430396 1743.70258,555.482768 1743.70258,556.780936 C1743.70258,558.079104 1742.64979,559.131476 1741.35111,559.131476 Z M1879.64854,559.131476 L1842.22891,559.131476 C1840.93023,559.131476 1839.87745,558.079104 1839.87745,556.780936 C1839.87745,555.482768 1840.93023,554.430396 1842.22891,554.430396 L1879.64854,554.430396 C1880.94721,554.430396 1882,555.482768 1882,556.780936 C1882,558.079104 1880.94721,559.131476 1879.64854,559.131476 Z M1796.03048,687.094899 L1715.54772,687.094899 C1714.24904,687.094899 1713.19625,686.042526 1713.19625,684.744358 C1713.19625,683.446191 1714.24904,682.393818 1715.54772,682.393818 L1796.03048,682.393818 C1797.32916,682.393818 1798.38195,683.446191 1798.38195,684.744358 C1798.38195,686.042526 1797.32916,687.094899 1796.03048,687.094899 Z M1803.11623,718.905546 L1760.60176,718.905546 C1759.30308,718.905546 1758.2503,717.853173 1758.2503,716.555006 C1758.2503,715.256838 1759.30308,714.204465 1760.60176,714.204465 L1803.11623,714.204465 C1804.41491,714.204465 1805.46769,715.256838 1805.46769,716.555006 C1805.46769,717.853173 1804.41491,718.905546 1803.11623,718.905546 Z M1672.37484,654.923835 C1671.07616,654.923835 1670.02338,653.871462 1670.02338,652.573295 C1670.02338,651.275127 1671.07616,650.222754 1672.37484,650.222754 L1737.965,650.222754 C1739.26368,650.222754 1740.31647,651.275127 1740.31647,652.573295 C1740.31647,653.871462 1739.26368,654.923835 1737.965,654.923835 L1672.37484,654.923835 Z M1776.21548,654.923835 C1774.9168,654.923835 1773.86402,653.871462 1773.86402,652.573295 C1773.86402,651.275127 1774.9168,650.222754 1776.21548,650.222754 L1796.03048,650.222754 C1797.32916,650.222754 1798.38195,651.275127 1798.38195,652.573295 C1798.38195,653.871462 1797.32916,654.923835 1796.03048,654.923835 L1776.21548,654.923835 Z M1689.11726,814.744916 L1617.00571,814.744916 C1615.70703,814.744916 1614.65424,813.692543 1614.65424,812.394375 C1614.65424,811.096208 1615.70703,810.043835 1617.00571,810.043835 L1689.11726,810.043835 C1690.41594,810.043835 1691.46873,811.096208 1691.46873,812.394375 C1691.46873,813.692543 1690.41594,814.744916 1689.11726,814.744916 Z M1800.81179,814.744916 L1710.49991,814.744916 C1709.20123,814.744916 1708.14844,813.692543 1708.14844,812.394375 C1708.14844,811.096208 1709.20123,810.043835 1710.49991,810.043835 L1800.81179,810.043835 C1802.11047,810.043835 1803.16326,811.096208 1803.16326,812.394375 C1803.16326,813.692543 1802.11047,814.744916 1800.81179,814.744916 Z M1621.00319,846.555563 L1532.2903,846.555563 C1530.99163,846.555563 1529.93884,845.50319 1529.93884,844.205023 C1529.93884,842.906855 1530.99163,841.854482 1532.2903,841.854482 L1621.00319,841.854482 C1622.30187,841.854482 1623.35466,842.906855 1623.35466,844.205023 C1623.35466,845.50319 1622.30187,846.555563 1621.00319,846.555563 Z M1645.72492,846.555563 C1644.42624,846.555563 1643.37345,845.50319 1643.37345,844.205023 C1643.37345,842.906855 1644.42624,841.854482 1645.72492,841.854482 L1692.15849,841.854482 C1692.99859,841.848884 1693.77786,842.291721 1694.20275,843.016182 C1694.62765,843.740642 1694.63363,844.636663 1694.21843,845.366722 C1693.80323,846.096781 1693.02994,846.549965 1692.18984,846.555563 L1645.72492,846.555563 Z M1633.65407,750.763205 C1632.35539,750.763205 1631.30261,749.710832 1631.30261,748.412664 C1631.30261,747.114496 1632.35539,746.062124 1633.65407,746.062124 L1655.78918,746.062124 C1657.08786,746.062124 1658.14065,747.114496 1658.14065,748.412664 C1658.14065,749.710832 1657.08786,750.763205 1655.78918,750.763205 L1633.65407,750.763205 Z M1882.17244,750.763205 L1846.38316,750.763205 C1845.08448,750.763205 1844.0317,749.710832 1844.0317,748.412664 C1844.0317,747.114496 1845.08448,746.062124 1846.38316,746.062124 L1882.21947,746.062124 C1883.51815,746.075105 1884.56041,747.138002 1884.54742,748.43617 C1884.53443,749.734337 1883.47112,750.776186 1882.17244,750.763205 Z M1695.2781,782.573852 L1642.68369,782.573852 C1641.38501,782.573852 1640.33223,781.521479 1640.33223,780.223312 C1640.33223,778.925144 1641.38501,777.872771 1642.68369,777.872771 L1695.2781,777.872771 C1696.57678,777.872771 1697.62956,778.925144 1697.62956,780.223312 C1697.62956,781.521479 1696.57678,782.573852 1695.2781,782.573852 Z M1749.54988,782.573852 L1727.08556,782.573852 C1725.78689,782.573852 1724.7341,781.521479 1724.7341,780.223312 C1724.7341,778.925144 1725.78689,777.872771 1727.08556,777.872771 L1749.54988,777.872771 C1750.84856,777.872771 1751.90135,778.925144 1751.90135,780.223312 C1751.90135,781.521479 1750.84856,782.573852 1749.54988,782.573852 Z M1487.39302,942.347922 C1486.09434,942.347922 1485.04156,941.295549 1485.04156,939.997381 C1485.04156,938.699214 1486.09434,937.646841 1487.39302,937.646841 L1513.25912,937.646841 C1514.09922,937.641242 1514.87849,938.08408 1515.30339,938.80854 C1515.72829,939.533001 1515.73426,940.429022 1515.31907,941.159081 C1514.90387,941.88914 1514.13057,942.342324 1513.29048,942.347922 L1487.39302,942.347922 Z M1769.11406,942.347922 C1767.81538,942.347922 1766.7626,941.295549 1766.7626,939.997381 C1766.7626,938.699214 1767.81538,937.646841 1769.11406,937.646841 L1824.89078,937.646841 C1826.18946,937.646841 1827.24225,938.699214 1827.24225,939.997381 C1827.24225,941.295549 1826.18946,942.347922 1824.89078,942.347922 L1769.11406,942.347922 Z M1848.20163,942.347922 C1846.90295,942.347922 1845.85016,941.295549 1845.85016,939.997381 C1845.85016,938.699214 1846.90295,937.646841 1848.20163,937.646841 L1878.28469,937.646841 C1879.58336,937.646841 1880.63615,938.699214 1880.63615,939.997381 C1880.63615,941.295549 1879.58336,942.347922 1878.28469,942.347922 L1848.20163,942.347922 Z M1722.7432,974.158569 C1721.44452,974.158569 1720.39173,973.106197 1720.39173,971.808029 C1720.39173,970.509861 1721.44452,969.457488 1722.7432,969.457488 L1743.81231,969.457488 C1745.11099,969.457488 1746.16377,970.509861 1746.16377,971.808029 C1746.16377,973.106197 1745.11099,974.158569 1743.81231,974.158569 L1722.7432,974.158569 Z M1657.20006,974.158569 C1655.90138,974.158569 1654.8486,973.106197 1654.8486,971.808029 C1654.8486,970.509861 1655.90138,969.457488 1657.20006,969.457488 L1697.95877,969.457488 C1699.25744,969.457488 1700.31023,970.509861 1700.31023,971.808029 C1700.31023,973.106197 1699.25744,974.158569 1697.95877,974.158569 L1657.20006,974.158569 Z M1421.77151,974.158569 L1387.61257,974.158569 C1386.3139,974.158569 1385.26111,973.106197 1385.26111,971.808029 C1385.26111,970.509861 1386.3139,969.457488 1387.61257,969.457488 L1421.77151,969.457488 C1423.07018,969.457488 1424.12297,970.509861 1424.12297,971.808029 C1424.12297,973.106197 1423.07018,974.158569 1421.77151,974.158569 Z M1369.81983,974.158569 L1271.05835,974.158569 C1269.75967,974.158569 1268.70689,973.106197 1268.70689,971.808029 C1268.70689,970.509861 1269.75967,969.457488 1271.05835,969.457488 L1369.81983,969.457488 C1371.11851,969.457488 1372.1713,970.509861 1372.1713,971.808029 C1372.1713,973.106197 1371.11851,974.158569 1369.81983,974.158569 Z M1527.80685,974.158569 L1448.60955,974.158569 C1447.31087,974.158569 1446.25808,973.106197 1446.25808,971.808029 C1446.25808,970.509861 1447.31087,969.457488 1448.60955,969.457488 L1527.80685,969.457488 C1529.10552,969.457488 1530.15831,970.509861 1530.15831,971.808029 C1530.15831,973.106197 1529.10552,974.158569 1527.80685,974.158569 Z M1791.90758,1005.98489 L1688.53723,1005.98489 C1687.23856,1005.98489 1686.18577,1004.93251 1686.18577,1003.63435 C1686.18577,1002.33618 1687.23856,1001.28381 1688.53723,1001.28381 L1791.90758,1001.28381 C1793.20626,1001.28381 1794.25905,1002.33618 1794.25905,1003.63435 C1794.25905,1004.93251 1793.20626,1005.98489 1791.90758,1005.98489 Z M1419.74925,1005.98489 C1418.45057,1005.98489 1417.39778,1004.93251 1417.39778,1003.63435 C1417.39778,1002.33618 1418.45057,1001.28381 1419.74925,1001.28381 L1477.20335,1001.28381 C1478.50202,1001.28381 1479.55481,1002.33618 1479.55481,1003.63435 C1479.55481,1004.93251 1478.50202,1005.98489 1477.20335,1005.98489 L1419.74925,1005.98489 Z M1308.80718,1005.98489 L1279.22577,1005.98489 C1277.92709,1005.98489 1276.87431,1004.93251 1276.87431,1003.63435 C1276.87431,1002.33618 1277.92709,1001.28381 1279.22577,1001.28381 L1308.80718,1001.28381 C1310.10586,1001.28381 1311.15865,1002.33618 1311.15865,1003.63435 C1311.15865,1004.93251 1310.10586,1005.98489 1308.80718,1005.98489 Z M1152.37214,1005.98489 C1151.07346,1005.98489 1150.02067,1004.93251 1150.02067,1003.63435 C1150.02067,1002.33618 1151.07346,1001.28381 1152.37214,1001.28381 L1258.78371,1001.28381 C1259.62381,1001.28661 1260.3986,1001.7372 1260.81622,1002.46586 C1261.23384,1003.19452 1261.23085,1004.09054 1260.80838,1004.8164 C1260.38591,1005.54226 1259.60813,1005.98769 1258.76803,1005.98489 L1152.37214,1005.98489 Z M479.040205,974.173656 C477.741528,974.173656 476.688742,973.121283 476.688742,971.823116 C476.688742,970.524948 477.741528,969.472549 479.040205,969.472549 L505.15713,969.472549 C506.455807,969.468248 507.512103,970.517113 507.516458,971.815281 C507.520761,973.113448 506.471484,974.169329 505.172806,974.173656 L479.040205,974.173656 Z M101.144296,974.173656 L70.0579448,974.173656 C68.7592672,974.173656 67.706481,973.121283 67.706481,971.823116 C67.706481,970.524948 68.7592672,969.472575 70.0579448,969.472575 L101.144296,969.472575 C102.442974,969.472575 103.49576,970.524948 103.49576,971.823116 C103.49576,973.121283 102.442974,974.173656 101.144296,974.173656 Z M552.029642,974.173656 L524.109928,974.173656 C522.811251,974.173656 521.758464,973.121283 521.758464,971.823116 C521.758464,970.524948 522.811251,969.472575 524.109928,969.472575 L552.029642,969.472575 C553.328319,969.472575 554.381105,970.524948 554.381105,971.823116 C554.381105,973.121283 553.328319,974.173656 552.029642,974.173656 Z M553.252403,1005.99997 L449.882054,1005.99997 C448.583377,1005.99997 447.53059,1004.9476 447.53059,1003.64943 C447.53059,1002.35127 448.583377,1001.29889 449.882054,1001.29889 L553.252403,1001.29889 C554.55108,1001.29889 555.603867,1002.35127 555.603867,1003.64943 C555.603867,1004.9476 554.55108,1005.99997 553.252403,1005.99997 Z M331.775866,1005.99997 C330.477188,1005.99997 329.424402,1004.9476 329.424402,1003.64943 C329.424402,1002.35127 330.477188,1001.29889 331.775866,1001.29889 L426.665268,1001.29889 C427.963946,1001.29889 429.016732,1002.35127 429.016732,1003.64943 C429.016732,1004.9476 427.963946,1005.99997 426.665268,1005.99997 L331.775866,1005.99997 Z M263.128799,1005.99997 C261.830122,1005.99997 260.777335,1004.9476 260.777335,1003.64943 C260.777335,1002.35127 261.830122,1001.29887 263.128799,1001.29887 L287.975933,1001.29887 C288.816031,1001.29609 289.593806,1001.74152 290.01628,1002.46738 C290.438754,1003.19324 290.441742,1004.08926 290.024118,1004.81792 C289.606495,1005.54658 288.831707,1005.99717 287.99161,1005.99997 L263.128799,1005.99997 Z M40.5078831,1005.99997 C39.2092055,1005.99997 38.1564193,1004.9476 38.1564193,1003.64943 C38.1564193,1002.35127 39.2092055,1001.29889 40.5078831,1001.29889 L153.378145,1001.29889 C154.676823,1001.29889 155.729609,1002.35127 155.729609,1003.64943 C155.729609,1004.9476 154.676823,1005.99997 153.378145,1005.99997 L40.5078831,1005.99997 Z M576.469189,1005.99997 C575.170511,1005.99997 574.117725,1004.9476 574.117725,1003.64943 C574.117725,1002.35127 575.170511,1001.29889 576.469189,1001.29889 L679.714126,1001.29889 C681.012804,1001.29889 682.06559,1002.35127 682.06559,1003.64943 C682.06559,1004.9476 681.012804,1005.99997 679.714126,1005.99997 L576.469189,1005.99997 Z M1596.15606,878.366211 C1594.85738,878.366211 1593.8046,877.313838 1593.8046,876.01567 C1593.8046,874.717503 1594.85738,873.66513 1596.15606,873.66513 L1616.99003,873.66513 C1618.28871,873.66513 1619.34149,874.717503 1619.34149,876.01567 C1619.34149,877.313838 1618.28871,878.366211 1616.99003,878.366211 L1596.15606,878.366211 Z M1567.24873,974.158569 C1565.95005,974.158569 1564.89727,973.106197 1564.89727,971.808029 C1564.89727,970.509861 1565.95005,969.457488 1567.24873,969.457488 L1614.93642,969.457488 C1629.89002,969.440218 1642.008,957.326994 1642.02528,942.379262 L1642.02528,905.428766 C1642.04256,887.884701 1656.26611,873.666736 1673.81707,873.64946 L1879.64854,873.64946 C1880.94721,873.64946 1882,874.701832 1882,876 C1882,877.298168 1880.94721,878.35054 1879.64854,878.35054 L1673.81707,878.35054 C1658.86347,878.367811 1646.74549,890.481035 1646.72821,905.428766 L1646.72821,942.379262 C1646.71093,959.923328 1632.48738,974.141293 1614.93642,974.158569 L1567.24873,974.158569 Z M229.894778,112.481196 C210.923925,112.47257 195.542315,97.1110228 195.516377,78.147635 C195.516377,76.8494673 196.569163,75.7970945 197.867841,75.7970945 C199.166518,75.7970945 200.219304,76.8494673 200.219304,78.147635 C200.236585,94.5060413 213.498592,107.762841 229.863425,107.780115 L373.835715,107.780115 C388.789318,107.762844 400.9073,95.6496206 400.924578,80.7018889 L400.924578,2.35054045 C400.924578,1.05237281 401.977364,0 403.276042,0 C404.574719,0 405.627506,1.05237281 405.627506,2.35054045 L405.627506,80.7018889 C405.610222,98.2459545 391.386672,112.46392 373.835715,112.481196 L236.745375,112.481196 L229.894778,112.481196 Z" id="形状"></path>
                <path d="M288.881895,912.840761 C287.302698,909.025422 288.175605,904.633778 291.09358,901.713644 C294.011556,898.79351 298.399955,897.919958 302.212474,899.500323 C306.024993,901.080688 308.510822,904.803744 308.510822,908.933437 C308.502192,914.568865 303.939301,919.13513 298.308038,919.143766 C294.181397,919.143766 290.461092,916.6561 288.881895,912.840761 Z M298.308038,903.459697 C295.269897,903.459697 292.806998,905.924418 292.806998,908.964805 C292.806998,912.005193 295.269897,914.469914 298.308038,914.469914 C301.346179,914.469914 303.809078,912.005193 303.809078,908.964805 C303.830056,907.49122 303.259758,906.070743 302.22583,905.021312 C301.191903,903.97188 299.780684,903.381127 298.308038,903.381276 L298.308038,903.459697 Z M78,621.256234 C78,615.617224 82.5679419,611.045904 88.2027839,611.045904 C93.8376258,611.045904 98.4055677,615.617224 98.4055677,621.256234 C98.3969374,626.891661 93.8340471,631.457926 88.2027839,631.466563 C82.5679419,631.466563 78,626.895243 78,621.256234 Z M88.2027839,615.782493 C85.1646433,615.782493 82.7017437,618.247214 82.7017437,621.287602 C82.7017437,624.327989 85.1646433,626.79271 88.2027839,626.79271 C91.2409244,626.79271 93.7038464,624.327989 93.7038464,621.287602 C93.7079884,619.824841 93.1302551,618.420562 92.0981582,617.384759 C91.0660614,616.348957 89.6644699,615.766809 88.2027839,615.766809 L88.2027839,615.782493 Z M213.958756,333.626082 C213.958756,327.987073 218.526698,323.415753 224.16154,323.415753 C229.796382,323.415753 234.364323,327.987073 234.364323,333.626082 C234.355693,339.26151 229.792803,343.827775 224.16154,343.836411 C218.526698,343.836411 213.958756,339.265091 213.958756,333.626082 Z M224.16154,328.152342 C221.936577,328.152342 219.930698,329.493618 219.079241,331.550737 C218.227785,333.607855 218.69843,335.9757 220.271717,337.55015 C221.845003,339.1246 224.211099,339.595593 226.266697,338.743507 C228.322294,337.891421 229.662669,335.884059 229.662669,333.65745 C229.670924,332.191977 229.095038,330.78366 228.062487,329.744457 C227.029936,328.705255 225.625953,328.120974 224.16154,328.120974 L224.16154,328.152342 Z M161.863435,463.223549 L129.891578,431.290783 C129.028467,430.363824 129.053935,428.919321 129.949185,428.023409 C130.844434,427.127498 132.28787,427.102011 133.214144,427.96576 L165.186001,459.961262 C165.814488,460.638794 165.98821,461.62188 165.630034,462.474024 C165.271857,463.326168 164.448179,463.889403 163.524718,463.913648 C162.901438,463.913099 162.303886,463.664875 161.863435,463.223549 Z M532.870863,78.7189336 C532.507352,77.8403702 532.708079,76.8292018 533.379551,76.1563965 L564.881234,44.6314167 C565.807508,43.7676672 567.250943,43.7931538 568.146193,44.6890657 C569.041443,45.5849777 569.066911,47.0294804 568.2038,47.9564395 L536.702117,79.4814193 C536.261666,79.9227454 535.664114,80.1709692 535.040834,80.1715183 C534.090638,80.1706819 533.234375,79.5974969 532.870863,78.7189336 Z M1745.56359,462.863413 L1713.9522,431.150224 C1713.08909,430.223265 1713.11456,428.778762 1714.00981,427.88285 C1714.90506,426.986938 1716.34849,426.961452 1717.27477,427.825201 L1748.96452,459.53839 C1749.64701,460.221181 1749.8432,461.252021 1749.4593,462.138071 C1749.0754,463.024121 1748.18939,463.585379 1747.22487,463.553512 C1746.60159,463.552962 1746.00404,463.304739 1745.56359,462.863413 Z M1679.46558,142.585062 C1679.10207,141.706499 1679.30279,140.69533 1679.97427,140.022525 L1711.66402,108.309336 C1712.59029,107.445587 1714.03373,107.471073 1714.92898,108.366985 C1715.82423,109.262897 1715.84969,110.7074 1714.98658,111.634359 L1683.29683,143.347548 C1682.85638,143.788874 1682.25883,144.037098 1681.63555,144.037647 C1680.68535,144.03681 1679.82909,143.463625 1679.46558,142.585062 Z M1644.67984,815.143299 C1643.72965,815.142462 1642.87338,814.569277 1642.50987,813.690714 C1642.14636,812.81215 1642.34709,811.800982 1643.01856,811.128177 L1674.771,779.46204 C1675.69728,778.598291 1677.14071,778.623777 1678.03596,779.519689 C1678.93121,780.415601 1678.95668,781.860104 1678.09357,782.787063 L1646.40382,814.500252 C1645.94032,814.940079 1645.31793,815.17223 1644.67984,815.143299 Z M188.609189,941.546651 C188.245677,940.668088 188.446404,939.65692 189.117876,938.984114 L220.870319,907.270926 C221.456378,906.641514 222.339004,906.382426 223.171945,906.595301 C224.004885,906.808177 224.655291,907.459065 224.86801,908.292621 C225.080728,909.126177 224.821831,910.009457 224.192885,910.595948 L192.503132,942.309137 C192.047439,942.766153 191.424094,943.015676 190.779159,942.999236 C189.828963,942.9984 188.9727,942.425215 188.609189,941.546651 Z" id="形状"></path>
                <path d="M97.350958,624.048817 C96.0525597,624.048817 95,622.99625 95,621.697884 C95,620.399517 96.0525597,619.346983 97.350958,619.346983 L194.523889,619.346983 C201.67181,619.427027 208.552103,616.631565 213.61854,611.58883 C218.684976,606.546095 221.51257,599.679084 221.465867,592.53104 L221.810674,523.414555 C221.862482,505.903487 236.068385,491.73297 253.579954,491.724411 L280.020394,491.724411 C296.306378,491.724469 309.520901,478.545318 309.5641,462.259787 C309.5641,460.961421 310.61666,459.908887 311.915058,459.908887 C313.213456,459.908887 314.266016,460.961421 314.266016,462.259787 C314.222806,481.142052 298.903168,496.426263 280.020394,496.426213 L253.595627,496.426213 C238.662527,496.426173 226.547158,508.513204 226.51259,523.4459 L226.167783,592.546713 C226.107306,609.974798 211.952493,624.066171 194.523889,624.048817 L97.350958,624.048817 Z M158.773654,781.182998 C158.773654,779.884631 159.826214,778.832097 161.124612,778.832097 C177.260851,778.75437 190.288547,765.62883 190.245145,749.492854 C190.245145,748.194487 191.297705,747.141953 192.596103,747.141953 C193.894501,747.141953 194.94718,748.194487 194.94718,749.492854 C194.981817,768.221999 179.854045,783.447542 161.124612,783.533899 C159.826214,783.533899 158.773654,782.481364 158.773654,781.182998 Z M494.850936,57.2936057 C490.724144,57.2936057 487.003703,54.8077465 485.424448,50.9951805 C483.845193,47.1826144 484.718132,42.794161 487.636214,39.8761493 C490.554297,36.9581376 494.942857,36.0852199 498.755516,37.6644365 C502.568174,39.2436531 505.054094,42.9640042 505.054094,47.090696 C505.045463,52.7220287 500.482406,57.2849753 494.850936,57.2936057 Z M489.349695,47.1220413 C489.349695,50.1602194 491.812684,52.6231493 494.850936,52.6231493 C497.889188,52.6231493 500.352178,50.1602194 500.352178,47.1220413 C500.352178,44.0838632 497.889188,41.6209333 494.850936,41.6209333 C491.812684,41.6209333 489.349695,44.0838632 489.349695,47.1220413 Z M1776.68172,206.592069 C1776.68172,200.957157 1781.24983,196.389159 1786.88488,196.389159 C1792.51993,196.389159 1797.08804,200.957157 1797.08804,206.592069 C1797.07941,212.223401 1792.51635,216.786348 1786.88488,216.794978 C1781.24983,216.794978 1776.68172,212.22698 1776.68172,206.592069 Z M1786.88488,201.122306 C1783.84663,201.122306 1781.38364,203.585236 1781.38364,206.623414 C1781.38364,209.661592 1783.84663,212.124522 1786.88488,212.124522 C1789.92313,212.124522 1792.38612,209.661592 1792.38612,206.623414 C1792.39447,205.159006 1791.81856,203.751712 1790.78597,202.713264 C1789.75338,201.674817 1788.34935,201.090961 1786.88488,201.090961 L1786.88488,201.122306 Z M1768.90789,663.701231 C1764.7811,663.701231 1761.06065,661.215372 1759.4814,657.402806 C1757.90214,653.59024 1758.77508,649.201787 1761.69317,646.283775 C1764.61125,643.365763 1768.99981,642.492846 1772.81247,644.072062 C1776.62513,645.651279 1779.11105,649.37163 1779.11105,653.498322 C1779.11105,659.133233 1774.54294,663.701231 1768.90789,663.701231 Z M1768.90789,648.028559 C1765.86964,648.028559 1763.40665,650.491489 1763.40665,653.529667 C1763.40665,656.567845 1765.86964,659.030775 1768.90789,659.030775 C1771.94614,659.030775 1774.40922,656.567845 1774.40922,653.529667 C1774.41329,652.067969 1773.83554,650.664711 1772.80341,649.629661 C1771.77127,648.594611 1770.36963,648.012886 1768.90789,648.012886 L1768.90789,648.028559 Z M1549.56351,972.782004 C1549.56351,967.147092 1554.13162,962.579094 1559.76666,962.579094 C1565.40171,962.579094 1569.96982,967.147092 1569.96982,972.782004 C1569.96119,978.413336 1565.39813,982.976283 1559.76666,982.984913 C1554.13162,982.984913 1549.56351,978.416915 1549.56351,972.782004 Z M1559.76666,967.312241 C1556.72841,967.312241 1554.26542,969.775171 1554.26542,972.813349 C1554.26542,975.851527 1556.72841,978.314457 1559.76666,978.314457 C1562.80492,978.314457 1565.26799,975.851527 1565.26799,972.813349 C1565.27207,971.351651 1564.69432,969.948393 1563.66218,968.913343 C1562.63005,967.878293 1561.2284,967.296568 1559.76666,967.296568 L1559.76666,967.312241 Z M1770.92971,302.446133 C1770.92971,301.147766 1771.98227,300.095232 1773.28067,300.095232 C1789.47752,300.077956 1802.60335,286.952444 1802.62063,270.755989 C1802.62063,269.457623 1803.67319,268.405089 1804.97158,268.405089 C1806.26998,268.405089 1807.32254,269.457623 1807.32254,270.755989 C1807.29664,289.545601 1792.07074,304.771135 1773.28067,304.797034 C1771.98227,304.797034 1770.92971,303.7445 1770.92971,302.446133 Z M1386.93991,110.706659 C1386.95719,91.8875048 1402.20918,76.6358778 1421.0288,76.6185966 C1422.32719,76.6185966 1423.37975,77.6711308 1423.37975,78.9694975 C1423.37975,80.2678642 1422.32719,81.3203983 1421.0288,81.3203983 C1404.80598,81.3376746 1391.6591,94.4842369 1391.64182,110.706659 C1391.64182,112.005026 1390.58926,113.05756 1389.29086,113.05756 C1387.99247,113.05756 1386.93991,112.005026 1386.93991,110.706659 Z M1703.20645,76.5088879 C1703.24964,58.9916964 1717.45806,44.8116562 1734.97573,44.8030717 L1882.30243,44.8030717 C1883.60083,44.8030717 1884.65339,45.8556059 1884.65339,47.1539726 C1884.65339,48.4523392 1883.60083,49.5048734 1882.30243,49.5048734 L1734.97573,49.5048734 C1727.79285,49.4882275 1720.89756,52.3255895 1715.80675,57.3927679 C1710.71593,62.4599464 1707.84661,69.3418615 1707.83,76.5245606 C1707.82228,77.7868475 1706.81905,78.8177353 1705.55741,78.8597888 C1704.25901,78.8597888 1703.20645,77.8072546 1703.20645,76.5088879 Z M1848.51133,719.840797 C1830.96414,719.823465 1816.74365,705.60332 1816.72637,688.056564 L1816.72637,559.148834 C1816.72637,557.850467 1817.77893,556.797933 1819.07733,556.797933 C1820.37573,556.797933 1821.42829,557.850467 1821.42829,559.148834 L1821.42829,688.056564 C1821.44556,703.006588 1833.56094,715.121669 1848.51133,715.138942 L1880.60974,715.138942 C1881.90814,715.14327 1882.95719,716.199313 1882.95293,717.497679 C1882.94853,718.796046 1881.89246,719.845072 1880.59407,719.840797 L1848.51133,719.840797 Z M1673.19255,271.69635 C1671.89415,271.69635 1670.84159,270.643816 1670.84159,269.345449 C1670.80703,254.421408 1658.69867,242.341394 1643.77423,242.341434 L1546.88341,242.466816 C1529.37287,242.441043 1515.1745,228.271037 1515.11414,210.761 L1514.67529,9.33581409 C1514.67529,8.0374474 1515.72785,6.98491323 1517.02625,6.98491323 C1518.32465,6.98491323 1519.37721,8.0374474 1519.37721,9.33581409 L1519.67499,210.761 C1519.72675,225.677879 1531.82503,237.747849 1546.74236,237.765014 L1643.63317,237.639633 C1661.15084,237.648217 1675.35926,251.828257 1675.40245,269.345449 C1675.40245,270.643816 1674.34989,271.69635 1673.05149,271.69635 L1673.19255,271.69635 Z" id="形状"></path>
                <path d="M1815.41451,569.634921 L1815.41451,426.896397 C1815.39723,411.954694 1803.28147,399.848786 1788.33625,399.840154 L1701.14674,399.840154 C1683.60265,399.822881 1669.38466,385.608233 1669.36739,368.06826 L1669.36739,356.694298 L1669.64945,203.678474 C1669.69263,186.168054 1683.89855,171.993494 1701.41313,171.984913 L1890.30284,172.110246 C1891.60101,172.110246 1892.65339,173.162373 1892.65339,174.460238 C1892.65339,175.758103 1891.60101,176.81023 1890.30284,176.81023 L1701.41313,176.684898 C1686.48267,176.684858 1674.36943,188.767217 1674.33487,203.694141 L1674.02146,368.083926 C1674.03875,383.025629 1686.15451,395.131538 1701.09973,395.140169 L1788.28924,395.140169 C1805.82722,395.157425 1820.04268,409.362542 1820.06859,426.896397 L1820.06859,569.634921 C1820.06885,570.914651 1819.04483,571.959319 1817.76506,571.984913 C1816.46689,571.984913 1815.41451,570.932786 1815.41451,569.634921 Z M294.685332,333.648128 C294.668058,317.457933 281.544539,304.337495 265.350544,304.320226 C264.052374,304.320225 263,303.268098 263,301.970233 C263,300.672369 264.052374,299.620241 265.350544,299.620241 C284.137302,299.64613 299.360524,314.865779 299.386419,333.648128 C299.386419,334.945993 298.334045,335.99812 297.035875,335.99812 C295.737706,335.99812 294.685332,334.945993 294.685332,333.648128 Z" id="形状"></path>
            </g>
        </g>
    </g>
</svg>