<?xml version="1.0" encoding="UTF-8"?>
<svg width="16px" height="16px" viewBox="0 0 16 16" version="1.1" xmlns="http://www.w3.org/2000/svg" xmlns:xlink="http://www.w3.org/1999/xlink">
    <!-- Generator: Sketch 55.2 (78181) - https://sketchapp.com -->
    <title>Action/ic_search</title>
    <desc>Created with Sketch.</desc>
    <g id="系统监控" stroke="none" stroke-width="1" fill="none" fill-rule="evenodd" opacity="0.400000006">
        <g id="报警规则定义" transform="translate(-367.000000, -102.000000)">
            <g id="Action/ic_search" transform="translate(365.000000, 100.000000)">
                <g id="ic_search">
                    <polygon id="Bounds" points="0 0 20 0 20 20 0 20"></polygon>
                    <path d="M12.9166667,11.6666667 L12.2583333,11.6666667 L12.025,11.4416667 C12.8416667,10.4916667 13.3333333,9.25833333 13.3333333,7.91666667 C13.3333333,4.925 10.9083333,2.5 7.91666667,2.5 C4.925,2.5 2.5,4.925 2.5,7.91666667 C2.5,10.9083333 4.925,13.3333333 7.91666667,13.3333333 C9.25833333,13.3333333 10.4916667,12.8416667 11.4416667,12.025 L11.6666667,12.2583333 L11.6666667,12.9166667 L15.8333333,17.075 L17.075,15.8333333 L12.9166667,11.6666667 L12.9166667,11.6666667 Z M7.91666667,11.6666667 C5.84166667,11.6666667 4.16666667,9.99166667 4.16666667,7.91666667 C4.16666667,5.84166667 5.84166667,4.16666667 7.91666667,4.16666667 C9.99166667,4.16666667 11.6666667,5.84166667 11.6666667,7.91666667 C11.6666667,9.99166667 9.99166667,11.6666667 7.91666667,11.6666667 L7.91666667,11.6666667 Z" id="Icon" fill="#000000"></path>
                </g>
            </g>
        </g>
    </g>
</svg>